<svg width="30" height="41" fill="none" xmlns="http://www.w3.org/2000/svg"><path d="M24.898 35.943c.649 2.086-.677 3.494-2.077 4.235-1.948-.137-4.088-.512-5.954-1.39 2.085-.018 3.503-2.03 3.613-3.476 1.271.375 2.808.604 4.418.631z" fill="#B27946"/><path d="M29.251 37.828a2.178 2.178 0 0 1-.475 1.61c-.375.457-1.116.75-1.702.813-.155.019-1.006 0-2.195 0-.64 0-1.335-.018-2.058-.073 1.4-.74 2.726-2.15 2.076-4.235h.257c.97 0 1.628-.064 1.7-.064.056-.009.147-.018.23-.018 1.125 0 2.058.85 2.167 1.967zm-15.083-1.327a9.01 9.01 0 0 0 4.39-1.948 9.77 9.77 0 0 0 1.922.76c-.11 1.444-1.528 3.457-3.613 3.475-.814-.384-1.574-.86-2.232-1.463-.293-.266-.494-.44-.732-.732l-.009-.064.274-.028z" fill="#DFB28B"/><path d="M27.074 19.763c0 .567-.045 1.097-.128 1.582-.832.686-2.872 1.262-4.262-.119l-.238-.091c.156-.375.238-.823.238-1.372 0-.44-.091-.933-.247-1.372l.247-.092c1.372 0 2.744-1.29 2.909-2.652.96 1.07 1.481 2.405 1.481 4.116z" fill="#B27946"/><path d="M21.952 21.876c.21-.22.375-.458.494-.75l.238.091c1.381 1.381 3.42.805 4.262.119-.366 2.058-1.436 3.403-2.725 4.372l-.073-.091c-2.05 0-3.458-1.912-3.64-2.763.621-.302 1.097-.613 1.444-.978zm3.641-6.229c-.165 1.372-1.537 2.652-2.909 2.652l-.247.092c-.128-.311-.274-.604-.485-.823v-4.39c1.537.685 2.772 1.472 3.64 2.469zm-8.031 8.543c.018 1.445.75 2.9 2.195 3.622l.073.165v.009c-.338.146-.64.283-.914.43-.897.457-1.482.914-1.802 1.573-1.949-.183-3.21-1.546-3.21-2.909l-.101-.082c.996-1.336 2.405-2.168 3.759-2.808z" fill="#DFB28B"/><path d="M13.903 27.08c0 1.363 1.262 2.726 3.21 2.909-.191.402-.283.878-.283 1.482v.667a6.067 6.067 0 0 1-3.604 1.519c-.164.018-.338.018-.503.018-.091 0-.192-.01-.283-.018V31.48c0-1.94.54-3.375 1.362-4.473l.101.073zm6.604-4.226c.174.851 1.592 2.763 3.64 2.763l.074.1c-.714.54-1.51.97-2.269 1.327-.457.22-.905.411-1.335.594-.275.119-.54.238-.787.339l-.073-.165c-1.445-.723-2.177-2.177-2.195-3.622.457-.22.905-.412 1.335-.595.046-.018.092-.036.128-.055.019-.009.028-.018.046-.018a20.193 20.193 0 0 0 1.436-.668zm-1.482-10.409v3.66c-.823-.312-1.765-.568-2.826-.851a5.174 5.174 0 0 0 1.354-3.32c.503.191.978.347 1.472.511z" fill="#B27946"/><path d="M13.857 14.613c.54-.979 1.125-2.67 1.382-3.668l.128.037c.823.42 1.527.713 2.186.951-.055 1.454-.686 2.616-1.354 3.32-.714-.192-1.482-.384-2.296-.612l-.046-.028zm-6.53-7.281c.722 1.464-.01 3.65-1.473 4.382l-.055.137c-1.299-.44-2.598-.97-3.558-1.628C3.668 9.482 4.38 8.046 3.65 6.59c1.115 0 2.433.311 3.677.741z" fill="#DFB28B"/><path d="M7.327 7.332c2.058.714 3.933 1.738 4.38 2.186l.047.028c-.54.979-1.125 2.67-1.382 3.668l-.128-.037c-.896-.302-2.67-.722-4.445-1.326l.055-.137c1.463-.732 2.195-2.918 1.473-4.382zm-3.668-.741c.722 1.446.018 2.89-1.409 3.632C1.335 9.61.732 8.896.732 8.055c0-1.464 1.463-1.464 2.927-1.464z" fill="#B27946"/><path d="M15.367 10.25c0 .128-.046.375-.129.695-.256.997-.841 2.69-1.38 3.668-.257.457-.495.76-.687.76-.731 0-2.927-.732-2.927-1.464 0-.128.046-.375.129-.695.256-.997.841-2.69 1.38-3.668.257-.458.495-.76.687-.76.731 0 2.927.732 2.927 1.464z" fill="#ECC19C"/><path d="M20.617 27.638c.42-.183.878-.375 1.335-.594v.402a9.125 9.125 0 0 1-3.393 7.107 9.093 9.093 0 0 1-4.39 1.948c-.092.019-.175.019-.275.028a8.378 8.378 0 0 1-1.976.018c-2.9-.274-5.332-2.012-6.796-4.345l-2.927.732c1.464-5.122 4.39-11.708 4.39-11.708s-.09 4.3 0 6.22c.156 3.302 2.617 6.019 5.855 6.202.091.009.192.018.283.018.165 0 .338 0 .503-.018a6.004 6.004 0 0 0 3.604-1.519v-.667c0-.604.092-1.08.284-1.482.32-.659.905-1.116 1.802-1.573.274-.147.576-.284.914-.43v-.01c.247-.1.512-.21.787-.329zM21.952.994a4.381 4.381 0 0 1 2.927 4.134 4.408 4.408 0 0 1-2.506 3.97.764.764 0 0 0-.42.695v12.083c-.348.365-.824.676-1.446.978-.42.21-.896.421-1.445.659l-.046-.092V9.756a.713.713 0 0 0-.393-.65 4.392 4.392 0 0 1-2.442-4.874A4.36 4.36 0 0 1 19.528.847a4.317 4.317 0 0 1 2.424.147zm0 4.134c0-.805-.658-1.464-1.463-1.464s-1.464.659-1.464 1.464c0 .805.659 1.463 1.464 1.463.805 0 1.463-.658 1.463-1.463z" fill="#CCD1D9"/><path d="M29.983 37.755a2.916 2.916 0 0 0-2.9-2.626c-.1 0-.21.01-.292.019-.028 0-.073 0-.119.009-.238.018-.787.055-1.518.055-1.921 0-3.851-.33-5.287-.87a9.792 9.792 0 0 0 2.808-6.841c2.47-1.235 5.122-3.265 5.122-7.738 0-1.884-.585-3.293-1.463-4.382v-.009h-.01c-.988-1.225-2.341-2.049-3.658-2.661V9.756a5.135 5.135 0 0 0 2.927-4.628A5.102 5.102 0 0 0 22.666.5s-.055-.028-.394-.156c-.347-.119-.43-.155-.786-.238-.083-.018-.275-.054-.275-.054a5.228 5.228 0 0 0-1.463 0s-.256.027-.467.073c-.283.055-.411.11-.64.2-.229.092-.357.166-.357.166-1.426.676-2.506 2.003-2.826 3.576-.466 2.342.704 4.683 2.826 5.67v1.675a22.622 22.622 0 0 1-2.231-.924c.018-.119.036-.21.036-.247 0-1.463-2.963-2.195-3.658-2.195-.293 0-.568.183-.833.475-1.591-1.033-5.305-2.661-7.94-2.661C2.205 5.86 0 5.86 0 8.055c0 2.99 5.159 4.436 8.58 5.396l.96.275a1.086 1.086 0 0 0-.027.183c0 1.463 2.963 2.195 3.658 2.195.339 0 .659-.256.97-.64.466.128.915.247 1.345.356 1.06.284 1.994.531 2.808.805v6.43c-2.735 1.18-6.586 3.028-6.586 8.416v1.353c-2.442-.503-4.263-2.67-4.39-5.414-.092-1.876 0-6.129 0-6.165l.082-3.65-1.482 3.33c-.027.063-2.964 6.695-4.427 11.808l-.348 1.216 3.65-.914c1.701 2.442 4.244 3.979 7.052 4.244a9.7 9.7 0 0 0 1.692.018c.183.201.366.366.595.567 2.314 2.067 5.927 3.12 10.747 3.12h1.82c.247 0 .366 0 .449-.01.713-.073 1.664-.43 2.204-1.08a2.894 2.894 0 0 0 .631-2.14zm-7.308 1.673c-1.317-.1-2.525-.292-3.586-.594.97-.64 1.647-1.647 1.958-2.616 1.015.238 2.13.384 3.274.439.174 1.4-.814 2.287-1.646 2.771zm-4.034-4.015c.311.146.64.274.997.402-.32.97-1.244 2.122-2.598 2.232a8.684 8.684 0 0 1-1.655-1.06 9.859 9.859 0 0 0 3.256-1.574zm1.363-8.305c-.915-.494-1.527-1.4-1.674-2.46.284-.129.567-.248.842-.367l-.275-.677.348.65.073-.037c.293-.128.558-.247.823-.366a5.283 5.283 0 0 0 2.324 2.122c-.275.147-.55.284-.824.421-.375.183-.74.339-1.097.494l-.202.092c-.11.027-.228.082-.338.128zm4.098-2.232c-1.29-.028-2.269-1.025-2.671-1.702.402-.237.768-.493 1.043-.786.073-.073.119-.156.183-.229.658.467 1.39.659 2.103.659.357 0 .695-.046 1.025-.128a6.015 6.015 0 0 1-1.683 2.186zm2.24-5.113c0 .411-.027.796-.082 1.161-.658.403-1.985.741-2.963-.128.073-.32.119-.65.119-1.033 0-.238-.037-.512-.083-.805.988-.21 1.894-.887 2.443-1.756.384.759.567 1.6.567 2.56zm-1.545-3.897c-.256.85-1.116 1.61-1.976 1.683a3.89 3.89 0 0 0-.137-.201v-3c.869.466 1.564.97 2.113 1.518zM16.903 4.37a3.643 3.643 0 0 1 2.78-2.817c1.117-.23 2.242.036 3.102.731a3.65 3.65 0 0 1 1.353 2.845 3.68 3.68 0 0 1-2.094 3.302 1.493 1.493 0 0 0-.833 1.354v11.753c-.347.302-.832.576-1.463.87V9.746c0-.567-.32-1.08-.814-1.308-1.528-.713-2.36-2.387-2.03-4.07zM5.607 11.01a18.798 18.798 0 0 1-2.03-.85c.795-.76 1.17-1.747 1.06-2.753.686.1 1.409.283 2.122.512.339 1.07-.182 2.533-1.152 3.091zM3.156 7.332c.21.833-.229 1.555-.888 2.022-.494-.403-.805-.833-.805-1.3 0-.502.257-.694 1.693-.722zm5.817 4.71a99.527 99.527 0 0 1-1.747-.502 4.49 4.49 0 0 0 .878-1.51 4.658 4.658 0 0 0 .229-1.527c1.07.448 1.994.933 2.497 1.262a17.2 17.2 0 0 0-.942 2.543c-.275-.082-.577-.174-.915-.265zm4.025 2.58c-.595-.082-1.72-.503-2.013-.805.1-.795 1.107-3.63 1.628-4.29.595.083 1.72.504 2.013.806-.1.804-1.107 3.64-1.628 4.29zm1.893-.466c.32-.714.595-1.51.805-2.205.384.174.74.33 1.08.467a4.51 4.51 0 0 1-.833 2.012c-.028-.009-.055-.018-.082-.018-.312-.082-.64-.174-.97-.256zm2.534.677a6.019 6.019 0 0 0 .74-1.903c.046.018.083.028.129.046v2.113a16.503 16.503 0 0 0-.87-.256zm-.449 10.473c.23.988.76 1.866 1.5 2.506-.731.384-1.317.805-1.728 1.363-1.3-.275-2.077-1.18-2.104-2.05.65-.767 1.473-1.344 2.332-1.82zm-3.31 3.439c.502.814 1.362 1.51 2.515 1.82a4.654 4.654 0 0 0-.083.915v.302a5.235 5.235 0 0 1-2.927 1.143v-1.454c0-1.07.183-1.967.494-2.726zm-1.675 7.08c-2.524-.238-4.792-1.693-6.247-4.007l-.283-.448-2.196.549c.75-2.387 1.738-4.967 2.543-6.96 0 .932.01 1.865.046 2.524.183 3.832 3.192 6.869 6.87 6.915.191 0 .374 0 .557-.019a6.71 6.71 0 0 0 4.089-1.738c1.262-1.143 2.049-2.423 2.341-3.805.32-.155.705-.32 1.208-.53l.2-.092c.02-.009.047-.018.065-.027a8.359 8.359 0 0 1-3.083 5.79 8.366 8.366 0 0 1-4.033 1.793c-.695.1-1.39.118-2.077.054zm16.227 3.146c-.21.256-.76.503-1.208.549-.11.009-.43 0-.905 0h-1.281c.705-.823 1.034-1.802.952-2.854.466-.01.823-.037 1.006-.055l.164-.009c.037 0 .092-.01.138-.01.75 0 1.372.568 1.445 1.318.046.384-.073.76-.311 1.061z" fill="#000"/><path d="M22.684 5.128a2.202 2.202 0 0 0-2.195-2.195 2.202 2.202 0 0 0-2.195 2.195c0 1.207.987 2.195 2.195 2.195a2.202 2.202 0 0 0 2.195-2.195zm-2.927 0c0-.402.33-.732.732-.732.402 0 .732.33.732.732 0 .402-.33.732-.732.732a.734.734 0 0 1-.732-.732z" fill="#000"/></svg>